<?xml version="1.0" standalone="no"?>
<!DOCTYPE svg PUBLIC "-//W3C//DTD SVG 20010904//EN"
 "http://www.w3.org/TR/2001/REC-SVG-20010904/DTD/svg10.dtd">
<svg version="1.0" xmlns="http://www.w3.org/2000/svg"
 width="500.000000pt" height="500.000000pt" viewBox="0 0 500.000000 500.000000"
 preserveAspectRatio="xMidYMid meet">
<metadata>
Created by potrace 1.14, written by Peter Selinger 2001-2017
</metadata>
<g transform="translate(0.000000,500.000000) scale(0.100000,-0.100000)"
fill="#000000" stroke="none">
<path d="M2207 4873 c-4 -4 -56 -10 -115 -14 -116 -8 -193 -29 -302 -85 -36
-18 -83 -40 -105 -48 -100 -36 -135 -58 -182 -114 -26 -31 -71 -82 -99 -114
-78 -85 -136 -202 -173 -346 -39 -150 -43 -160 -107 -247 -66 -89 -104 -165
-104 -207 0 -18 -11 -74 -25 -123 -39 -141 -48 -240 -34 -369 15 -131 9 -166
-25 -166 -14 0 -26 -4 -28 -10 -1 -5 -52 -12 -113 -15 -60 -3 -126 -8 -145
-12 l-35 -7 40 -6 c43 -5 242 4 313 15 23 4 42 3 42 -2 0 -14 -58 -31 -130
-38 -36 -3 -86 -13 -111 -21 -35 -11 -57 -12 -90 -5 -24 5 -45 8 -48 6 -6 -6
64 -35 84 -35 9 0 18 -8 22 -17 3 -10 28 -48 55 -85 45 -61 54 -68 111 -87 61
-21 63 -22 75 -69 25 -88 25 -126 3 -169 -21 -42 -21 -110 0 -164 10 -25 45
-49 73 -49 24 0 57 -48 78 -111 12 -41 23 -110 27 -189 11 -178 44 -244 162
-320 l57 -36 -19 -39 c-30 -60 -21 -87 22 -65 31 17 34 5 9 -30 -16 -23 -19
-35 -11 -43 8 -8 17 -4 36 13 32 30 32 14 0 -30 -50 -67 -20 -69 48 -2 47 45
48 46 41 18 -6 -26 -5 -28 12 -21 32 15 79 8 138 -19 51 -23 61 -25 106 -15
38 8 64 8 101 -1 31 -8 77 -10 122 -6 69 7 73 6 91 -19 10 -14 25 -25 32 -25
13 0 18 -11 15 -36 -1 -7 6 -14 14 -18 11 -4 32 10 62 42 25 26 52 46 60 44 7
-2 30 10 51 26 43 34 133 72 114 49 -7 -8 -30 -22 -52 -32 -22 -10 -40 -24
-40 -32 0 -18 9 -17 59 8 49 23 61 21 31 -6 -18 -17 -28 -45 -14 -45 3 0 23
14 45 32 31 25 42 29 48 19 7 -10 14 -10 38 2 18 10 35 12 43 7 8 -5 27 -6 42
-3 42 8 61 -2 48 -27 -6 -11 -14 -18 -18 -16 -5 3 -14 0 -22 -6 -12 -8 -12 -9
3 -4 11 3 17 0 17 -9 0 -9 -9 -14 -22 -13 -13 0 -36 -7 -53 -16 -16 -9 -36
-16 -43 -16 -7 0 -11 -4 -8 -9 7 -10 -28 -43 -37 -36 -4 3 -5 2 -2 -2 7 -9
-35 -53 -51 -53 -21 0 -35 25 -22 38 7 7 9 12 5 12 -5 0 -28 -20 -54 -45 -49
-49 -63 -53 -105 -31 -16 8 -28 11 -28 6 0 -17 45 -40 69 -35 12 2 30 0 39 -4
9 -5 35 -18 58 -29 40 -21 40 -21 57 -1 10 11 22 17 27 14 6 -3 10 1 10 10 0
22 44 37 76 24 15 -5 24 -12 20 -16 -3 -3 -1 -12 5 -19 37 -45 -49 -72 -168
-54 -65 10 -91 11 -120 1 -21 -6 -57 -13 -80 -14 -84 -4 -25 -16 127 -26 l155
-10 -145 5 c-168 5 -228 12 -208 26 9 6 6 7 -9 3 -12 -3 -24 -1 -28 5 -3 5
-13 10 -21 10 -9 0 -12 -5 -8 -11 9 -15 -30 -3 -73 22 -18 10 -33 14 -33 10 0
-5 -15 -11 -34 -13 -19 -2 -32 0 -30 4 3 4 13 8 23 8 22 0 36 41 18 52 -18 12
-33 10 -47 -7 -7 -8 -21 -15 -31 -15 -12 0 -16 -5 -13 -15 4 -9 0 -15 -10 -15
-9 0 -16 -8 -16 -19 0 -11 -4 -22 -9 -25 -16 -10 -33 -114 -23 -143 11 -33 42
-5 42 37 0 11 6 23 13 27 8 4 17 16 20 26 6 15 14 17 44 12 44 -7 59 -18 67
-51 8 -29 40 -64 60 -64 7 0 16 -9 19 -20 3 -11 18 -24 34 -30 15 -5 41 -16
56 -25 16 -8 34 -15 40 -15 7 0 25 -11 40 -24 16 -14 34 -22 42 -20 7 3 30 -2
51 -11 21 -9 49 -13 61 -10 27 6 37 -7 20 -28 -8 -10 -35 -17 -81 -20 -58 -4
-71 -2 -87 14 -11 11 -23 19 -28 19 -6 0 -22 11 -37 25 -28 26 -58 31 -83 16
-20 -13 -6 -56 29 -93 17 -17 30 -35 30 -39 0 -8 64 -29 100 -33 8 -1 48 -6
88 -11 47 -5 69 -11 60 -16 -7 -5 -11 -9 -8 -9 3 0 64 -9 135 -19 72 -11 142
-17 156 -14 18 3 28 0 32 -11 5 -12 0 -16 -16 -16 -28 0 -47 -17 -47 -42 0
-20 -16 -24 -23 -5 -2 6 -6 -3 -9 -21 -4 -29 -2 -32 21 -32 13 0 35 10 48 22
23 21 51 27 250 54 28 3 81 3 118 -1 l67 -7 -48 -49 c-26 -27 -84 -73 -128
-103 -45 -30 -119 -83 -166 -117 -101 -72 -169 -109 -206 -109 -27 0 -44 16
-180 163 l-71 77 -162 3 c-151 2 -159 3 -119 15 24 7 80 16 126 19 84 6 101
16 56 33 -15 6 -22 14 -18 22 5 8 0 9 -17 4 -13 -4 -45 -11 -71 -16 -26 -5
-87 -24 -135 -43 -49 -19 -114 -42 -145 -51 -32 -9 -64 -19 -73 -22 -10 -4
-15 0 -15 10 0 9 -6 19 -14 22 -19 7 -238 -82 -287 -118 -30 -21 -48 -28 -65
-24 -29 8 -37 26 -61 142 -10 48 -23 89 -29 91 -17 6 -5 -98 26 -220 24 -97
30 -111 57 -128 17 -11 42 -23 55 -26 49 -14 384 -19 1286 -21 l933 -2 164
165 165 166 -28 122 -27 122 -11 -97 c-15 -132 -13 -127 -71 -116 -26 5 -106
13 -178 18 -158 11 -227 28 -122 29 66 1 69 2 108 44 67 72 65 124 -7 120 -29
-2 -35 0 -26 9 8 8 12 53 12 135 0 118 2 130 41 251 34 104 43 147 49 238 6
93 11 117 30 144 18 26 20 35 11 53 -10 21 -10 21 -5 -3 8 -40 -24 -53 -96
-40 -72 13 -94 4 -114 -45 -20 -47 -49 -62 -135 -68 -74 -6 -75 -6 -113 28
-21 19 -45 35 -54 35 -8 0 -34 -13 -57 -28 -82 -55 -250 -109 -300 -97 -17 5
-30 -1 -48 -19 -36 -39 -70 -34 -129 19 -28 25 -55 45 -60 45 -25 0 -7 52 30
88 42 40 84 48 115 22 17 -14 83 0 138 27 17 9 71 16 134 18 l105 4 -7 -39
c-8 -48 2 -50 40 -10 35 36 41 37 49 5 8 -31 32 -33 42 -2 6 19 9 15 23 -28
12 -38 21 -50 36 -50 18 0 20 6 18 50 -2 45 -1 47 8 23 17 -45 43 -31 48 27 1
12 75 40 96 36 3 0 14 8 26 20 18 18 28 20 76 14 l56 -7 -6 36 c-5 34 0 41 26
37 4 -1 10 6 13 14 3 8 10 13 14 10 5 -3 11 25 15 62 9 97 31 195 47 205 7 5
33 7 58 5 33 -3 61 4 107 24 119 53 148 86 193 222 20 61 21 81 16 205 -3 75
-10 164 -15 197 -5 32 -8 131 -5 220 l5 160 52 15 c44 13 64 27 121 88 l68 72
-10 41 c-6 23 -8 47 -5 55 4 10 -4 12 -31 7 -21 -3 -51 1 -73 9 -21 8 -58 14
-83 12 -25 -2 -36 -1 -25 2 24 7 44 24 28 24 -7 0 -14 37 -17 98 -16 236 -79
456 -176 609 -17 26 -44 91 -60 143 -25 79 -41 110 -97 185 -83 110 -221 246
-277 274 -22 11 -75 36 -116 56 -41 19 -100 51 -130 70 -30 19 -64 35 -76 35
-27 0 -130 53 -164 85 -75 70 -259 125 -419 125 -40 0 -115 6 -165 14 -225 35
-287 41 -299 29z m101 -745 c7 -7 12 -20 12 -30 0 -10 16 -32 34 -49 19 -17
38 -45 42 -61 3 -17 15 -45 25 -62 17 -29 17 -35 4 -52 -8 -10 -15 -38 -15
-61 0 -43 0 -43 36 -43 19 0 43 4 52 9 23 12 81 21 98 14 18 -7 18 -23 0 -23
-7 0 -30 -20 -50 -45 -21 -25 -43 -45 -51 -45 -7 0 -15 -7 -19 -15 -3 -9 -18
-15 -36 -15 -32 0 -41 -17 -13 -27 15 -6 15 -7 -3 -14 -18 -7 -18 -8 2 -8 11
-1 57 13 102 29 46 17 91 30 102 30 11 0 20 4 20 9 0 13 67 34 80 26 14 -9 52
4 45 16 -4 5 1 9 9 9 23 0 28 -17 10 -34 -18 -19 -61 -21 -66 -4 -3 7 -11 9
-24 3 -10 -4 -22 -8 -26 -7 -4 1 -5 -5 -2 -12 6 -16 -24 -56 -41 -56 -7 0 -22
-11 -35 -25 -13 -14 -29 -25 -37 -25 -7 0 -13 -4 -13 -9 0 -5 -16 -19 -35 -32
-41 -28 -44 -44 -12 -69 12 -10 19 -22 15 -26 -4 -4 -14 -1 -23 6 -12 10 -15
10 -15 -3 0 -16 24 -30 35 -19 4 4 10 7 13 8 19 2 59 24 71 38 14 17 41 22 41
7 0 -5 -11 -12 -25 -15 -29 -7 -34 -26 -6 -26 24 0 43 23 39 47 -2 14 3 17 20
15 17 -1 25 4 29 18 3 11 10 20 15 20 5 0 6 -4 3 -10 -3 -5 -1 -10 4 -10 6 0
11 7 11 16 0 9 9 18 20 21 23 6 26 19 8 26 -7 3 5 3 26 0 27 -4 37 -3 32 5 -4
6 -14 9 -24 6 -14 -5 -15 -4 -2 5 18 13 21 13 38 2 11 -6 9 -14 -10 -33 -13
-14 -33 -28 -45 -32 -14 -5 -23 -15 -23 -28 0 -13 -5 -18 -14 -15 -9 4 -16 -3
-19 -21 -7 -36 1 -46 20 -27 8 9 17 14 20 11 9 -9 10 -96 2 -102 -5 -3 -7 -10
-4 -15 4 -5 0 -9 -8 -9 -16 0 -42 -54 -33 -68 5 -9 -24 -22 -51 -22 -19 0 -16
27 6 49 11 11 18 27 18 37 -1 10 3 19 8 19 37 1 46 41 15 68 -20 17 -22 16
-57 -18 -20 -19 -40 -35 -45 -35 -4 0 -8 -7 -8 -15 0 -23 -41 -96 -51 -89 -5
3 -14 -6 -21 -20 -6 -14 -17 -26 -25 -26 -7 0 -16 -7 -19 -15 -4 -8 -12 -15
-19 -15 -8 0 -16 -9 -20 -19 -3 -11 -14 -21 -23 -24 -25 -5 61 -28 137 -36 35
-4 84 -4 108 -1 23 4 43 3 43 -2 0 -20 -145 -13 -267 12 -112 24 -190 25 -375
4 -77 -8 -142 -13 -145 -11 -2 3 21 8 52 12 30 3 55 11 55 17 0 12 -70 78 -82
78 -18 0 -25 4 -61 37 -64 57 -177 93 -267 84 -14 -1 -63 -4 -110 -6 -47 -1
-90 -3 -96 -4 -23 -2 -94 -83 -94 -107 0 -13 -5 -24 -11 -24 -11 0 -9 13 6 55
7 19 7 19 -10 3 -17 -16 -20 -37 -17 -120 2 -37 3 -38 39 -38 20 0 34 -2 31
-5 -4 -4 -45 -5 -147 -3 -13 0 -20 3 -14 6 6 4 11 43 12 87 1 43 5 83 8 89 3
5 -2 15 -12 22 -15 11 -16 18 -7 41 6 15 10 35 10 43 0 57 13 132 31 173 11
26 20 51 19 55 -1 4 2 15 7 25 4 10 2 23 -5 32 -10 12 -9 15 7 15 27 0 35 10
22 27 -9 10 -7 13 9 13 14 0 20 5 16 13 -3 8 2 20 11 27 8 7 15 21 15 31 0 11
5 19 10 19 6 0 10 8 10 18 0 10 9 26 21 35 11 10 20 28 19 40 -4 40 0 43 46
43 36 -1 49 3 58 19 25 44 94 89 121 79 11 -5 18 0 22 15 5 18 8 19 21 9 23
-19 74 -17 98 4 19 17 27 18 67 8 33 -9 50 -9 65 -1 12 6 50 11 86 11 49 0 80
7 123 26 32 15 72 32 88 40 37 17 97 18 113 2z m-964 -85 c-19 -45 -31 -59
-41 -49 -4 4 0 12 10 18 14 7 17 17 12 35 -3 15 -2 22 4 19 5 -4 12 -2 16 4
14 22 13 8 -1 -27z m165 34 c-2 -1 -13 -9 -24 -17 -19 -14 -19 -14 -6 3 7 9
18 17 24 17 6 0 8 -1 6 -3z m251 -22 c-7 -8 -17 -15 -22 -15 -6 0 -5 7 2 15 7
8 17 15 22 15 6 0 5 -7 -2 -15z m-330 -79 c0 -3 -4 -8 -10 -11 -5 -3 -10 -1
-10 4 0 6 5 11 10 11 6 0 10 -2 10 -4z m-144 -28 c-12 -40 -17 -50 -22 -46 -5
6 13 58 20 58 3 0 4 -6 2 -12z m181 -4 c-3 -3 -12 -4 -19 -1 -8 3 -5 6 6 6 11
1 17 -2 13 -5z m1293 -34 c-8 -5 -19 -10 -25 -10 -5 0 -3 5 5 10 8 5 20 10 25
10 6 0 3 -5 -5 -10z m-1390 -4 c0 -2 -8 -10 -17 -17 -16 -13 -17 -12 -4 4 13
16 21 21 21 13z m1617 -2 c-3 -3 -12 -4 -19 -1 -8 3 -5 6 6 6 11 1 17 -2 13
-5z m-1736 -27 c-13 -13 -26 -3 -16 12 3 6 11 8 17 5 6 -4 6 -10 -1 -17z
m1459 13 c-8 -5 -19 -10 -25 -10 -5 0 -3 5 5 10 8 5 20 10 25 10 6 0 3 -5 -5
-10z m233 3 c-7 -2 -21 -2 -30 0 -10 3 -4 5 12 5 17 0 24 -2 18 -5z m-60 -10
c-7 -2 -21 -2 -30 0 -10 3 -4 5 12 5 17 0 24 -2 18 -5z m1077 -13 c0 -5 -5
-10 -11 -10 -5 0 -7 5 -4 10 3 6 8 10 11 10 2 0 4 -4 4 -10z m-1213 -6 c-3 -3
-12 -4 -19 -1 -8 3 -5 6 6 6 11 1 17 -2 13 -5z m-1437 -8 c0 -2 -13 -9 -30
-15 -35 -12 -41 -5 -7 9 25 10 37 12 37 6z m1397 -2 c-3 -3 -12 -4 -19 -1 -8
3 -5 6 6 6 11 1 17 -2 13 -5z m-67 -64 c0 -5 -2 -10 -4 -10 -3 0 -8 5 -11 10
-3 6 -1 10 4 10 6 0 11 -4 11 -10z m203 3 c-7 -2 -19 -2 -25 0 -7 3 -2 5 12 5
14 0 19 -2 13 -5z m193 -11 c-10 -2 -22 0 -28 6 -6 6 0 7 19 4 21 -5 23 -7 9
-10z m-259 -8 c-3 -3 -12 -4 -19 -1 -8 3 -5 6 6 6 11 1 17 -2 13 -5z m216 -1
c-7 -2 -21 -2 -30 0 -10 3 -4 5 12 5 17 0 24 -2 18 -5z m-68 -13 c-11 -5 -29
-8 -40 -8 -16 0 -15 2 5 8 34 11 60 11 35 0z m-260 -36 c-44 -19 -99 -44 -122
-54 -24 -11 -43 -17 -43 -15 0 4 68 37 190 92 14 7 32 12 40 12 8 1 -21 -15
-65 -35z m160 6 c3 -5 -1 -10 -9 -10 -9 0 -16 5 -16 10 0 6 4 10 9 10 6 0 13
-4 16 -10z m150 0 c-3 -5 -12 -10 -18 -10 -7 0 -6 4 3 10 19 12 23 12 15 0z
m1052 -12 c-3 -8 -6 -5 -6 6 -1 11 2 17 5 13 3 -3 4 -12 1 -19z m-1120 -14
c-3 -3 -12 -4 -19 -1 -8 3 -5 6 6 6 11 1 17 -2 13 -5z m1153 -8 c0 -8 -4 -18
-10 -21 -5 -3 -10 3 -10 14 0 12 5 21 10 21 6 0 10 -6 10 -14z m-1025 -34 c-3
-3 -11 0 -18 7 -9 10 -8 11 6 5 10 -3 15 -9 12 -12z m1047 -38 c-7 -12 -9 -8
-10 18 -1 26 1 30 9 16 6 -11 6 -24 1 -34z m-1082 31 c0 -6 -73 -25 -78 -20
-2 2 11 8 29 14 41 11 49 12 49 6z m-1768 -32 c-3 -16 -7 -22 -10 -15 -4 13 4
42 11 42 2 0 2 -12 -1 -27z m2694 15 c4 -6 3 -8 -4 -4 -6 3 -13 -2 -15 -11 -4
-14 -5 -13 -6 5 -1 23 13 30 25 10z m-2879 -20 c-3 -8 -6 -5 -6 6 -1 11 2 17
5 13 3 -3 4 -12 1 -19z m1708 2 c-3 -5 -12 -10 -18 -10 -7 0 -6 4 3 10 19 12
23 12 15 0z m104 -21 c-22 -13 -31 -11 -17 5 7 8 17 12 22 9 4 -3 2 -9 -5 -14z
m1109 -13 c10 4 13 3 6 -3 -14 -11 -25 -43 -15 -43 14 0 22 -29 15 -56 -3 -13
-12 -24 -19 -24 -7 0 -16 -6 -18 -12 -3 -7 -6 16 -6 52 -1 36 -4 76 -8 90 -6
24 -6 24 10 8 10 -9 25 -15 35 -12z m-1273 5 c-7 -13 -95 -61 -95 -53 0 4 21
19 48 33 57 32 54 31 47 20z m-1485 -21 c0 -5 -2 -10 -4 -10 -3 0 -8 5 -11 10
-3 6 -1 10 4 10 6 0 11 -4 11 -10z m1495 -30 c-3 -5 -12 -10 -18 -10 -7 0 -6
4 3 10 19 12 23 12 15 0z m-45 -24 c0 -2 -13 -9 -30 -15 -35 -12 -41 -5 -7 9
25 10 37 12 37 6z m1227 -58 c-2 -13 -4 -3 -4 22 0 25 2 35 4 23 2 -13 2 -33
0 -45z m-1097 11 c0 -5 -7 -9 -15 -9 -9 0 -12 6 -9 15 6 15 24 11 24 -6z
m1215 11 c3 -5 2 -10 -4 -10 -5 0 -13 5 -16 10 -3 6 -2 10 4 10 5 0 13 -4 16
-10z m-2928 -37 c-3 -10 -5 -4 -5 12 0 17 2 24 5 18 2 -7 2 -21 0 -30z m51 -7
c-7 -8 -15 -12 -17 -11 -5 6 10 25 20 25 5 0 4 -6 -3 -14z m2770 -47 l-3 -24
-13 23 c-7 12 -10 27 -6 33 10 17 26 -6 22 -32z m142 16 c0 -8 -2 -15 -4 -15
-2 0 -6 7 -10 15 -3 8 -1 15 4 15 6 0 10 -7 10 -15z m-2992 -162 c-1 -85 -3
-103 -7 -63 -6 55 -3 180 5 180 2 0 3 -53 2 -117z m3067 47 c-3 -5 4 -14 15
-20 17 -9 19 -14 9 -26 -10 -13 -16 -11 -41 16 -34 37 -34 40 -6 32 16 -4 19
-2 13 8 -5 9 -4 11 4 6 6 -4 9 -11 6 -16z m-2500 0 c-11 -5 -31 -8 -45 -8 -23
0 -22 1 5 8 42 11 65 11 40 0z m1028 -25 c-7 -21 -12 -19 -10 4 0 11 5 18 9
15 4 -3 5 -11 1 -19z m-1120 8 c-13 -2 -33 -2 -45 0 -13 2 -3 4 22 4 25 0 35
-2 23 -4z m252 -13 c3 -6 -1 -7 -9 -4 -18 7 -21 14 -7 14 6 0 13 -4 16 -10z
m2221 -1 c3 -6 2 -15 -4 -21 -6 -6 -11 -2 -15 11 -5 22 7 29 19 10z m-2325
-16 c12 -16 12 -17 -1 -7 -8 6 -22 14 -30 17 -13 5 -12 6 1 6 9 1 23 -7 30
-16z m184 -3 c10 -11 16 -20 13 -20 -3 0 -13 9 -23 20 -10 11 -16 20 -13 20 3
0 13 -9 23 -20z m-25 -22 c0 -12 -6 -9 -26 13 -19 22 -19 22 4 8 12 -8 22 -17
22 -21z m2133 12 c-3 -11 -9 -20 -13 -20 -5 0 -6 9 -3 20 3 11 9 20 13 20 5 0
6 -9 3 -20z m197 1 c0 -5 -7 -12 -16 -15 -14 -5 -15 -4 -4 9 14 17 20 19 20 6z
m-1317 -16 c-3 -9 -8 -14 -10 -11 -3 3 -2 9 2 15 9 16 15 13 8 -4z m1175 -20
c-3 -3 -9 2 -12 12 -6 14 -5 15 5 6 7 -7 10 -15 7 -18z m-2931 -37 c-3 -8 -6
-5 -6 6 -1 11 2 17 5 13 3 -3 4 -12 1 -19z m244 -11 c-10 -9 -11 -8 -5 6 3 10
9 15 12 12 3 -3 0 -11 -7 -18z m2749 -5 c0 -13 -67 -39 -129 -52 -57 -11 -85
-7 -30 5 17 4 55 18 83 31 54 25 76 30 76 16z m-2474 -18 c26 -9 70 -32 98
-51 l51 -36 -115 7 c-63 3 -136 6 -162 6 -50 0 -58 8 -33 34 8 8 15 21 15 30
0 10 13 16 43 19 23 2 45 4 49 5 4 1 28 -5 54 -14z m-551 -62 c-11 -2 -24 -8
-29 -13 -17 -16 -46 -11 -39 7 5 13 8 13 15 2 7 -11 11 -10 20 3 7 10 19 14
32 11 20 -6 21 -6 1 -10z m815 7 c-25 -4 -61 -7 -80 -7 l-35 1 40 7 c22 4 58
7 80 7 l40 0 -45 -8z m-473 -5 c-3 -3 -12 -4 -19 -1 -8 3 -5 6 6 6 11 1 17 -2
13 -5z m938 -13 c18 -7 18 -8 -5 -24 -24 -15 -44 -24 -137 -62 -24 -10 -45
-26 -48 -36 -11 -33 -61 -59 -147 -74 -104 -18 -120 -18 -85 1 15 8 27 19 27
24 0 4 15 11 33 15 17 4 50 19 71 33 51 35 237 129 256 130 8 0 24 -3 35 -7z
m794 -17 c2 -2 -10 -4 -28 -4 -46 0 -130 -63 -131 -98 0 -7 7 -27 16 -43 8
-17 13 -33 11 -36 -3 -2 -27 2 -53 11 -27 8 -44 15 -38 15 5 1 18 7 28 14 17
13 17 15 2 45 -21 40 -21 37 16 63 52 37 151 55 177 33z m456 -10 c-11 -9 -40
-25 -65 -36 -61 -26 -113 -77 -99 -95 6 -7 19 -13 28 -13 20 0 41 -19 41 -35
0 -9 -16 -9 -64 0 -36 7 -70 9 -78 4 -24 -15 -38 -9 -38 15 0 22 5 25 43 29
39 4 38 4 -9 4 -28 0 -56 3 -62 7 -18 11 -14 44 8 64 19 16 235 69 290 71 25
0 25 0 5 -15z m-1615 -4 c-14 -4 -34 -8 -45 -8 l-20 -1 20 9 c11 5 31 8 45 8
l25 0 -25 -8z m570 -4 l45 -14 -29 -11 c-19 -8 -54 -9 -96 -5 -60 6 -72 3
-121 -21 -30 -15 -65 -35 -79 -44 -40 -27 -90 -41 -90 -26 0 18 19 30 76 49
28 9 62 28 75 42 13 15 33 30 44 34 31 13 126 11 175 -4z m1138 5 c-52 -8 -89
-36 -109 -83 -9 -22 -9 -32 0 -41 6 -6 11 -18 11 -26 -1 -28 -30 20 -30 49 0
56 68 111 135 109 l40 -2 -47 -6z m-2411 -26 c-15 -14 -37 -25 -48 -25 -24 0
-48 -11 -114 -56 -27 -18 -63 -36 -80 -39 -26 -5 -27 -5 -11 6 10 6 30 21 43
33 39 35 176 103 208 104 l30 1 -28 -24z m1593 17 c0 -15 -33 -40 -80 -60 -25
-11 -65 -41 -90 -66 -50 -52 -62 -54 -152 -26 -34 11 -79 20 -98 20 -19 0 -42
5 -50 10 -31 20 77 10 161 -15 l84 -26 25 29 c14 16 47 54 73 85 43 52 52 57
88 57 21 0 39 -4 39 -8z m980 -2 c13 -9 13 -10 0 -9 -8 0 -24 4 -35 9 l-20 9
20 0 c11 0 27 -4 35 -9z m-2740 -5 c0 -13 -83 -57 -145 -78 -63 -21 -75 -22
-115 -11 l-45 12 70 1 c39 1 80 7 91 14 100 58 144 77 144 62z m2140 -10 c-7
-8 -19 -15 -26 -15 -8 0 -20 -11 -26 -25 -6 -14 -18 -25 -27 -25 -11 0 -12 -3
-4 -8 12 -8 22 -112 10 -112 -4 0 -13 0 -19 0 -16 0 -73 159 -62 170 5 5 41
13 79 18 39 5 74 10 79 11 5 0 3 -6 -4 -14z m-1780 1 c0 -2 -33 -11 -74 -21
-44 -10 -84 -27 -98 -40 -34 -32 -64 -40 -72 -19 -3 9 -4 20 -1 25 5 7 98 38
160 52 26 6 85 8 85 3z m178 -11 c-21 -8 -47 -23 -60 -34 -12 -12 -30 -23 -40
-27 -15 -4 -16 -9 -7 -26 9 -18 8 -24 -6 -34 -21 -16 -57 -9 -102 17 -66 40
-48 61 63 75 32 4 82 15 109 25 28 10 57 18 65 18 8 0 -2 -7 -22 -14z m162 5
c0 -5 -5 -10 -11 -10 -5 0 -8 -4 -4 -9 3 -5 -9 -20 -26 -34 -31 -24 -35 -39
-28 -101 1 -11 14 -31 28 -44 14 -13 20 -21 14 -17 -7 3 -47 10 -88 14 -83 10
-99 17 -72 32 18 11 23 54 7 64 -6 4 -2 21 9 44 15 29 29 40 60 50 23 6 46 9
51 6 5 -3 18 -1 27 4 23 13 33 14 33 1z m28 -37 c-9 -10 -18 -34 -22 -54 -5
-28 -2 -39 14 -54 11 -10 20 -22 20 -28 0 -15 -30 14 -46 44 -15 31 -7 68 23
102 21 22 31 13 11 -10z m2013 -18 c54 -19 84 -24 113 -19 23 4 34 9 26 14 -8
5 -5 9 9 13 13 3 19 1 15 -5 -4 -6 1 -8 12 -5 42 13 201 19 208 9 8 -13 -11
-19 -89 -26 -33 -4 -94 -11 -135 -18 -69 -10 -82 -9 -153 12 l-77 23 -60 -21
c-48 -16 -60 -17 -60 -6 0 19 47 42 111 53 3 1 39 -10 80 -24z m-2526 -44 c-1
-11 -21 -36 -46 -56 -47 -40 -63 -62 -35 -52 9 4 16 2 16 -2 0 -5 3 -16 6 -25
6 -16 -34 -37 -95 -51 -31 -7 -31 -6 -31 34 0 39 2 41 29 41 16 0 37 7 46 16
24 24 47 74 41 89 -5 14 12 22 50 24 15 1 20 -5 19 -18z m1005 -93 c17 -12 30
-28 30 -35 0 -8 -3 -12 -7 -10 -5 3 -9 -9 -10 -26 -2 -18 -7 -33 -13 -35 -6
-2 -6 -10 -1 -20 5 -9 12 -37 16 -62 4 -25 12 -48 18 -52 6 -3 -16 -9 -47 -13
-42 -5 -61 -4 -69 5 -9 10 -9 11 3 5 8 -5 4 3 -9 18 -15 16 -42 30 -74 37 -28
6 -55 15 -61 19 -6 5 -22 11 -36 13 -17 2 -25 9 -25 23 0 14 6 19 20 17 18 -2
17 0 -5 17 -14 12 -30 19 -37 16 -7 -2 -15 0 -18 5 -3 5 20 16 52 25 121 34
189 55 203 65 23 15 38 12 70 -12z m470 -28 c4 0 11 -7 14 -16 7 -18 -35 -38
-101 -49 -36 -6 -43 -4 -43 9 0 9 -12 21 -27 27 -22 8 -24 12 -13 19 8 6 26
10 40 10 14 0 45 6 70 14 38 11 45 11 48 0 2 -8 7 -14 12 -14z m1338 -1 c7
-12 11 -24 7 -27 -9 -9 -40 13 -43 32 -5 23 21 20 36 -5z m-264 -11 c-25 -29
-47 -47 -58 -48 -9 0 64 69 73 70 2 0 -4 -10 -15 -22z m-2198 -59 c33 -21 65
-39 71 -39 6 0 16 -7 23 -15 11 -13 15 -13 21 -3 7 10 9 9 9 -4 0 -23 12 -25
135 -21 61 2 130 0 155 -5 34 -7 18 -8 -65 -4 -86 3 -148 -1 -285 -22 -96 -14
-238 -33 -315 -42 -77 -9 -156 -18 -176 -21 -34 -5 -37 -3 -44 29 -8 36 -8 35
-19 60 -5 10 -9 32 -10 49 -1 29 2 32 48 46 26 8 50 13 51 11 8 -8 11 -126 4
-145 -10 -28 2 -36 41 -28 30 7 51 42 32 54 -7 4 1 15 18 26 16 11 37 35 47
55 13 24 28 37 48 41 17 4 26 7 20 9 -5 1 -1 5 10 10 41 17 117 0 181 -41z
m1351 25 c-3 -3 -12 -4 -19 -1 -8 3 -5 6 6 6 11 1 17 -2 13 -5z m-417 -48 c0
-3 -15 -14 -32 -26 l-33 -22 28 26 c27 25 37 31 37 22z m-1583 -38 c-3 -7 -5
-2 -5 12 0 14 2 19 5 13 2 -7 2 -19 0 -25z m290 -10 c-3 -7 -5 -2 -5 12 0 14
2 19 5 13 2 -7 2 -19 0 -25z m1666 15 c-18 -2 -48 -2 -65 0 -18 2 -4 4 32 4
36 0 50 -2 33 -4z m110 0 c-7 -2 -21 -2 -30 0 -10 3 -4 5 12 5 17 0 24 -2 18
-5z m-230 -10 c-7 -2 -19 -2 -25 0 -7 3 -2 5 12 5 14 0 19 -2 13 -5z m158 -17
c-6 -8 -21 -16 -32 -19 -24 -6 -19 1 13 19 31 16 32 16 19 0z m-431 -9 c0 -2
-10 -12 -22 -23 l-23 -19 19 23 c18 21 26 27 26 19z m-406 -16 c4 -5 -3 -7
-14 -4 -23 6 -26 13 -6 13 8 0 17 -4 20 -9z m881 -1 c-27 -12 -43 -12 -25 0 8
5 22 9 30 9 10 0 8 -3 -5 -9z m1030 -33 c26 -39 58 -108 52 -113 -3 -3 -77
127 -86 151 -6 16 6 2 34 -38z m-535 -3 c0 -2 -9 -4 -20 -4 -11 0 -20 4 -20 9
0 5 9 7 20 4 11 -3 20 -7 20 -9z m-640 -4 c-8 -5 -19 -10 -25 -10 -5 0 -3 5 5
10 8 5 20 10 25 10 6 0 3 -5 -5 -10z m833 -8 c-13 -4 -31 -15 -42 -24 -19 -16
-24 -32 -36 -131 -4 -27 -8 -47 -11 -45 -2 2 1 42 6 88 11 95 27 121 74 119
26 -1 28 -2 9 -7z m-1853 -12 c-36 -4 -61 -7 -56 -8 5 -1 3 -9 -4 -17 -9 -11
-32 -15 -79 -15 -61 0 -67 -2 -68 -21 -2 -17 1 -19 10 -10 13 13 66 14 87 1
12 -7 8 -10 -15 -10 -44 0 -75 -11 -75 -25 0 -19 -32 -43 -37 -27 -7 20 -55
14 -98 -13 -50 -31 -55 -31 -55 1 0 27 -24 30 -26 3 -1 -8 -2 -20 -3 -28 -1
-9 -13 -12 -42 -9 l-41 4 6 -38 c5 -30 3 -38 -9 -38 -19 0 -19 -14 0 -34 8 -8
15 -22 15 -30 0 -9 9 -24 20 -34 12 -9 30 -36 42 -59 12 -25 29 -43 42 -45 29
-6 70 12 94 42 l20 24 -42 19 -41 19 28 10 c26 9 32 25 28 68 -2 12 0 13 7 1
8 -11 16 -11 46 -1 44 14 159 15 164 1 2 -6 21 -11 43 -11 30 0 37 -3 33 -15
-4 -8 -14 -15 -23 -16 -11 0 -10 -3 7 -11 l22 -11 -27 -19 c-22 -14 -24 -18
-10 -18 26 0 17 -34 -10 -38 -12 -2 -33 -14 -48 -28 -14 -13 -33 -24 -41 -24
-15 0 -74 -27 -74 -34 0 -2 48 -2 108 1 137 6 205 25 249 69 21 21 39 31 46
27 7 -4 22 -9 34 -11 25 -3 37 14 47 68 5 27 4 32 -6 22 -7 -7 -21 -12 -31
-12 -13 0 -17 -5 -13 -15 4 -10 -1 -15 -17 -16 -12 -1 -35 -3 -52 -5 -28 -3
-28 -2 -9 9 12 7 19 18 16 26 -3 10 0 12 11 8 9 -3 21 1 27 9 7 8 19 14 26 14
16 0 19 16 4 25 -10 6 -2 36 14 47 6 4 19 -1 29 -10 18 -16 19 -15 15 56 -2
39 0 72 4 72 13 0 9 -150 -6 -220 -48 -225 -122 -289 -379 -330 -104 -17 -262
-8 -322 19 -68 30 -157 141 -192 242 -10 27 -21 49 -26 49 -4 0 -5 5 -2 10 4
6 2 17 -4 24 -6 7 -15 37 -21 66 -12 63 1 125 30 140 24 13 40 12 17 -1 -12
-7 -15 -15 -8 -27 4 -9 6 -23 4 -29 -3 -7 0 -13 7 -13 8 0 9 -14 5 -44 -5 -33
-2 -55 14 -91 12 -27 24 -45 27 -42 4 3 -1 38 -11 77 -19 77 -14 146 10 137 9
-4 14 5 17 29 3 26 0 34 -12 34 -8 1 3 7 25 15 52 17 171 46 182 44 4 -1 15 1
23 4 28 12 174 24 285 24 96 0 102 -1 45 -7z m1217 4 c-3 -3 -12 -4 -19 -1 -8
3 -5 6 6 6 11 1 17 -2 13 -5z m-1754 -21 c-7 -2 -19 -2 -25 0 -7 3 -2 5 12 5
14 0 19 -2 13 -5z m964 1 c-3 -3 -12 -4 -19 -1 -8 3 -5 6 6 6 11 1 17 -2 13
-5z m1210 -41 c-3 -10 -5 -2 -5 17 0 19 2 27 5 18 2 -10 2 -26 0 -35z m-2508
7 c-6 -16 -15 -30 -20 -30 -13 0 -11 7 7 35 22 33 25 31 13 -5z m1876 10 c-3
-5 -1 -10 6 -10 7 0 10 -2 7 -5 -3 -3 -13 -2 -22 1 -14 5 -15 9 -4 15 17 11
20 11 13 -1z m669 -215 c-30 -125 -67 -174 -162 -214 -30 -12 -56 -21 -58 -19
-2 2 26 17 61 32 36 16 65 32 65 37 0 5 8 18 18 29 9 11 16 23 14 26 -2 3 3
11 11 17 21 18 57 172 59 252 l2 70 4 -80 c2 -52 -3 -104 -14 -150z m223 193
c-3 -7 -5 -2 -5 12 0 14 2 19 5 13 2 -7 2 -19 0 -25z m-35 -23 c0 -5 -5 -11
-11 -13 -6 -2 -11 4 -11 13 0 9 5 15 11 13 6 -2 11 -8 11 -13z m-1976 -24 c-7
-10 -76 -20 -76 -11 0 14 15 20 47 20 19 0 32 -4 29 -9z m1271 3 c-3 -3 -12
-4 -19 -1 -8 3 -5 6 6 6 11 1 17 -2 13 -5z m-70 -10 c-3 -3 -12 -4 -19 -1 -8
3 -5 6 6 6 11 1 17 -2 13 -5z m-64 -11 c-7 -2 -21 -2 -30 0 -10 3 -4 5 12 5
17 0 24 -2 18 -5z m-1293 -13 c-20 -13 -33 -13 -25 0 3 6 14 10 23 10 15 0 15
-2 2 -10z m1237 4 c-3 -3 -12 -4 -19 -1 -8 3 -5 6 6 6 11 1 17 -2 13 -5z
m-1082 -45 c-76 -4 -148 -13 -173 -23 -24 -8 -40 -12 -38 -7 15 24 189 49 285
41 42 -3 24 -6 -74 -11z m650 11 c3 -6 -1 -7 -9 -4 -18 7 -21 14 -7 14 6 0 13
-4 16 -10z m-16 -24 c9 -7 11 -24 7 -59 -5 -34 -4 -47 4 -42 13 8 3 -44 -11
-59 -12 -14 -11 -29 1 -21 6 4 10 -16 10 -52 0 -56 1 -59 30 -70 25 -10 30
-16 29 -45 0 -18 1 -49 2 -68 4 -56 -12 -190 -22 -190 -6 0 -6 -8 1 -19 5 -11
10 -31 10 -44 0 -18 7 -27 26 -31 15 -4 24 -9 21 -13 -3 -3 -2 -15 3 -28 7
-17 5 -25 -6 -29 -8 -3 -12 -11 -9 -16 5 -7 -3 -8 -22 -3 -40 10 -60 8 -127
-16 -78 -28 -91 -27 -137 10 -36 28 -56 36 -130 53 -17 4 -29 14 -33 30 -7 29
16 109 56 195 16 34 27 65 25 68 -3 2 -14 0 -25 -6 -12 -6 -24 -11 -27 -11
-14 0 10 47 41 79 18 19 47 62 65 95 17 34 39 68 49 76 9 8 25 41 34 72 10 32
25 68 35 80 10 13 23 37 30 54 10 25 17 31 34 26 12 -2 28 -10 36 -16z m1240
-43 c-15 -56 -20 -63 -13 -18 6 39 11 55 19 55 2 0 -1 -17 -6 -37z m-1544 17
c3 -5 1 -10 -4 -10 -6 0 -11 5 -11 10 0 6 2 10 4 10 3 0 8 -4 11 -10z m-262
-17 c-7 -2 -21 -2 -30 0 -10 3 -4 5 12 5 17 0 24 -2 18 -5z m1667 -3 c0 -5 -2
-10 -4 -10 -3 0 -8 5 -11 10 -3 6 -1 10 4 10 6 0 11 -4 11 -10z m312 -60 c-4
-36 -12 -65 -20 -68 -9 -3 -10 2 -2 22 5 14 10 43 11 63 1 21 4 42 7 46 9 19
11 -2 4 -63z m-2135 54 c-3 -3 -12 -4 -19 -1 -8 3 -5 6 6 6 11 1 17 -2 13 -5z
m-549 -16 c5 -7 28 -54 49 -104 82 -189 179 -297 293 -325 34 -8 111 -14 202
-13 81 0 142 -3 136 -7 -6 -4 -36 -7 -67 -8 -31 -1 -65 -3 -76 -5 -11 -3 -24
-5 -28 -5 -5 -1 -5 -6 -1 -12 10 -16 234 -4 299 16 28 8 56 15 62 15 18 0 10
-80 -9 -94 -22 -16 -51 -80 -38 -84 5 -2 1 -11 -11 -21 -19 -15 -19 -18 -6
-30 9 -7 13 -19 10 -27 -13 -33 41 -58 69 -31 41 39 46 40 85 19 21 -10 55
-27 76 -35 20 -9 37 -22 37 -28 0 -7 -13 -9 -37 -5 -118 20 -201 25 -309 20
l-120 -6 -84 36 c-53 24 -110 40 -159 46 -53 7 -80 15 -88 28 -21 30 -46 52
-60 52 -23 0 -114 72 -138 110 -25 40 -47 158 -38 203 3 16 1 45 -5 65 -14 51
-37 154 -37 172 0 8 -13 27 -29 43 -27 24 -28 27 -9 27 11 0 25 -6 31 -12z
m962 2 c0 -5 0 -12 0 -15 0 -3 -2 -5 -5 -5 -3 0 -5 3 -4 7 0 4 -8 10 -18 14
-16 7 -15 8 5 8 12 1 22 -3 22 -9z m980 -40 c-14 -4 -38 -8 -55 -8 -29 1 -29
1 5 8 50 11 83 11 50 0z m-102 -17 c-10 -2 -28 -2 -40 0 -13 2 -5 4 17 4 22 1
32 -1 23 -4z m657 -3 c3 -5 -1 -10 -9 -10 -9 0 -16 5 -16 10 0 6 4 10 9 10 6
0 13 -4 16 -10z m-468 -6 c-3 -3 -12 -4 -19 -1 -8 3 -5 6 6 6 11 1 17 -2 13
-5z m-14 -23 c4 -4 1 -24 -8 -44 -15 -37 -15 -37 -35 -17 -11 11 -24 20 -28
20 -12 0 -32 46 -24 55 8 7 84 -4 95 -14z m-689 -38 c-6 -62 -14 -68 -10 -7 4
53 4 54 10 54 3 0 3 -21 0 -47z m576 39 c0 -4 -16 -6 -35 -4 -19 2 -35 6 -35
8 0 2 16 4 35 4 19 0 35 -4 35 -8z m566 -18 c-4 -9 -9 -15 -11 -12 -3 3 -3 13
1 22 4 9 9 15 11 12 3 -3 3 -13 -1 -22z m554 -9 c0 -8 -2 -15 -4 -15 -2 0 -6
7 -10 15 -3 8 -1 15 4 15 6 0 10 -7 10 -15z m-1076 -34 c4 -1 6 -19 4 -41 -3
-31 0 -39 10 -35 7 2 11 1 7 -4 -3 -5 1 -12 7 -14 7 -3 -33 -6 -89 -6 -56 -1
-108 -4 -117 -7 -9 -3 -16 -1 -16 4 0 9 56 20 128 25 23 1 29 12 12 22 -5 3
-10 0 -10 -7 0 -7 -10 1 -21 19 -32 50 -19 56 85 44z m478 -23 c-5 -7 -12 -24
-15 -38 l-4 -25 -2 26 c0 14 4 30 11 37 16 16 23 15 10 0z m523 -8 c3 -6 -1
-7 -9 -4 -18 7 -21 14 -7 14 6 0 13 -4 16 -10z m38 -63 c-5 -8 -8 -7 -10 0 -3
7 -10 10 -18 7 -7 -3 -16 -1 -20 5 -4 7 0 8 11 4 14 -5 16 -3 10 12 -7 18 -6
18 13 1 11 -10 18 -23 14 -29z m-1596 -29 c-2 -13 -4 -5 -4 17 -1 22 1 32 4
23 2 -10 2 -28 0 -40z m790 36 c-3 -3 -12 -4 -19 -1 -8 3 -5 6 6 6 11 1 17 -2
13 -5z m-72 -15 c-22 -4 -51 -8 -65 -7 -35 1 34 15 75 16 25 0 23 -2 -10 -9z
m332 5 c-3 -3 -12 -4 -19 -1 -8 3 -5 6 6 6 11 1 17 -2 13 -5z m-644 -121 c-7
-2 -21 -2 -30 0 -10 3 -4 5 12 5 17 0 24 -2 18 -5z m-953 -43 c0 -5 -10 -10
-22 -9 -22 0 -22 1 -3 9 11 5 21 9 23 9 1 1 2 -3 2 -9z m-70 -20 c-14 -4 -36
-8 -50 -8 -22 0 -22 1 5 8 17 4 39 8 50 8 16 0 15 -2 -5 -8z m117 4 c-3 -3
-12 -4 -19 -1 -8 3 -5 6 6 6 11 1 17 -2 13 -5z m-147 -808 c0 -2 -8 -10 -17
-17 -16 -13 -17 -12 -4 4 13 16 21 21 21 13z m70 -21 c0 -1 -12 -2 -26 -2 -17
0 -22 2 -13 7 10 7 39 3 39 -5z m189 -21 c4 3 29 -1 56 -9 26 -8 67 -15 89
-16 23 0 50 -4 61 -9 34 -14 -107 1 -154 16 -31 10 -47 11 -51 3 -4 -6 -14 0
-23 15 -22 32 -22 48 -1 18 8 -12 19 -20 23 -18z m51 -34 c8 -5 16 -20 17 -32
0 -13 4 -33 8 -46 7 -22 7 -22 -26 -8 -30 12 -34 19 -37 55 -3 42 7 51 38 31z
m299 -9 c10 -7 0 -8 -30 -5 -26 2 -35 1 -23 -4 12 -4 37 -20 57 -36 32 -25 35
-32 30 -65 -7 -42 -20 -54 -48 -45 -11 3 -40 10 -65 14 -25 5 -75 16 -112 25
-60 15 -68 20 -68 41 0 12 5 35 12 50 11 23 16 26 51 21 22 -3 47 -12 55 -21
14 -14 13 -17 -15 -26 -25 -9 -29 -15 -25 -35 5 -30 22 -33 29 -5 3 11 12 20
19 20 12 0 20 40 15 73 -2 10 101 9 118 -2z m171 -62 c-7 -11 -14 -18 -17 -15
-3 3 0 12 7 21 18 21 23 19 10 -6z m-75 2 c3 -6 -4 -15 -15 -21 -16 -8 -20 -8
-20 3 0 25 23 36 35 18z m-390 -59 c-5 -5 -63 27 -71 39 -3 6 12 0 34 -12 22
-13 39 -25 37 -27z m405 -26 c0 -4 -9 -6 -20 -3 -11 3 -20 0 -20 -6 0 -6 -3
-7 -7 -4 -3 4 0 18 7 32 12 23 14 23 26 7 7 -9 14 -21 14 -26z m110 24 c0 -5
-4 -10 -10 -10 -5 0 -10 5 -10 10 0 6 5 10 10 10 6 0 10 -4 10 -10z m-443 -16
c-3 -3 -12 -4 -19 -1 -8 3 -5 6 6 6 11 1 17 -2 13 -5z m40 -10 c-3 -3 -12 -4
-19 -1 -8 3 -5 6 6 6 11 1 17 -2 13 -5z m143 -34 c8 -5 11 -10 5 -10 -5 0 -17
5 -25 10 -8 5 -10 10 -5 10 6 0 17 -5 25 -10z m83 -7 c-7 -2 -19 -2 -25 0 -7
3 -2 5 12 5 14 0 19 -2 13 -5z m688 -60 c-12 -20 -14 -14 -5 12 4 9 9 14 11
11 3 -2 0 -13 -6 -23z m-631 -10 c0 -7 -1 -13 -2 -14 -2 0 -31 -3 -65 -5 -59
-5 -82 4 -69 25 9 14 136 8 136 -6z m-283 -89 c-3 -3 -12 -4 -19 -1 -8 3 -5 6
6 6 11 1 17 -2 13 -5z m81 -11 c-10 -2 -26 -2 -35 0 -10 3 -2 5 17 5 19 0 27
-2 18 -5z m85 -50 c-7 -2 -21 -2 -30 0 -10 3 -4 5 12 5 17 0 24 -2 18 -5z
m124 -9 c-3 -3 -12 -4 -19 -1 -8 3 -5 6 6 6 11 1 17 -2 13 -5z m151 -11 c-10
-2 -26 -2 -35 0 -10 3 -2 5 17 5 19 0 27 -2 18 -5z m902 -13 c0 -5 -4 -10 -10
-10 -5 0 -10 5 -10 10 0 6 5 10 10 10 6 0 10 -4 10 -10z m-185 -103 c7 -7 4
-8 -8 -3 -10 3 -48 6 -83 6 -38 0 -64 4 -64 11 0 13 141 1 155 -14z m-245 10
c0 -2 -18 -18 -40 -36 -28 -23 -45 -29 -55 -23 -13 7 -9 13 22 35 32 23 73 36
73 24z m111 -53 c17 -9 69 -18 117 -21 48 -3 89 -7 90 -8 2 -2 -7 -9 -20 -17
-16 -9 -66 -13 -170 -13 -82 0 -148 1 -148 1 0 3 94 74 97 74 2 0 18 -7 34
-16z"/>
<path d="M1775 3970 c4 -6 11 -8 16 -5 14 9 11 15 -7 15 -8 0 -12 -5 -9 -10z"/>
<path d="M1414 3825 c-15 -10 -13 -12 15 -10 38 2 49 11 22 18 -11 3 -28 -1
-37 -8z"/>
<path d="M1768 3733 c12 -2 30 -2 40 0 9 3 -1 5 -23 4 -22 0 -30 -2 -17 -4z"/>
<path d="M3114 2925 c8 -8 16 -15 19 -15 2 0 4 7 4 15 0 8 -9 15 -19 15 -17 0
-18 -2 -4 -15z"/>
<path d="M1414 2913 c7 -7 77 -5 85 3 2 2 -17 4 -44 4 -27 0 -45 -3 -41 -7z"/>
<path d="M1694 2961 c3 -5 15 -7 26 -4 28 7 25 13 -6 13 -14 0 -23 -4 -20 -9z"/>
<path d="M1655 2870 c11 -5 29 -8 40 -8 16 0 15 2 -5 8 -34 11 -60 11 -35 0z"/>
<path d="M1633 2472 c-7 -4 -9 -13 -5 -19 4 -7 13 -9 19 -5 7 4 9 13 5 19 -4
7 -13 9 -19 5z"/>
<path d="M1585 2440 c-3 -5 -2 -10 4 -10 5 0 13 5 16 10 3 6 2 10 -4 10 -5 0
-13 -4 -16 -10z"/>
<path d="M1341 2294 c0 -11 3 -14 6 -6 3 7 2 16 -1 19 -3 4 -6 -2 -5 -13z"/>
<path d="M2401 2194 c0 -11 3 -14 6 -6 3 7 2 16 -1 19 -3 4 -6 -2 -5 -13z"/>
<path d="M2361 2184 c0 -11 3 -14 6 -6 3 7 2 16 -1 19 -3 4 -6 -2 -5 -13z"/>
<path d="M2356 2135 c-9 -26 -7 -32 5 -12 6 10 9 21 6 23 -2 3 -7 -2 -11 -11z"/>
<path d="M1330 1886 c0 -8 5 -18 10 -21 6 -3 10 1 10 9 0 8 -4 18 -10 21 -5 3
-10 -1 -10 -9z"/>
<path d="M2480 860 c-8 -5 -25 -10 -37 -10 -14 0 -23 -6 -23 -15 0 -17 16 -20
25 -5 9 14 53 12 58 -2 2 -7 6 -1 9 15 5 28 -5 34 -32 17z"/>
<path d="M1330 1410 c-9 -6 -10 -10 -3 -10 6 0 15 5 18 10 8 12 4 12 -15 0z"/>
<path d="M2030 1355 c-11 -13 -10 -14 4 -9 9 3 16 10 16 15 0 13 -6 11 -20 -6z"/>
<path d="M1635 1348 c-11 -6 -32 -25 -48 -41 -19 -21 -32 -27 -45 -22 -44 19
-60 16 -107 -20 -51 -39 -78 -42 -83 -10 -4 22 -40 65 -55 65 -5 0 2 -9 17
-21 14 -11 26 -27 26 -35 0 -8 7 -26 16 -40 l17 -24 33 25 34 26 0 -34 c0 -54
38 -247 61 -309 11 -31 43 -82 70 -115 26 -32 67 -89 91 -127 36 -60 42 -77
44 -132 2 -35 5 -68 9 -74 9 -14 25 -12 20 3 -2 6 -6 50 -9 97 -3 47 -5 89 -5
93 -1 5 -5 5 -11 2 -5 -3 -10 0 -10 7 0 8 -7 23 -16 34 -8 10 -12 12 -8 4 4
-9 -2 -7 -13 5 -11 11 -18 24 -15 29 3 5 0 6 -6 2 -7 -4 -12 -1 -12 7 0 8 -7
20 -15 27 -8 7 -12 17 -8 23 3 6 1 7 -5 3 -8 -4 -16 3 -22 20 -6 14 -19 37
-30 51 -10 13 -24 49 -31 79 -7 30 -16 54 -21 54 -4 0 -7 3 -6 8 1 4 -3 36 -9
72 -22 122 -24 187 -7 194 8 3 24 1 34 -4 29 -15 35 -13 85 30 54 47 95 53
119 18 9 -12 16 -30 16 -40 0 -20 17 -23 54 -9 31 12 49 -6 44 -46 -4 -36 20
-41 53 -13 13 12 17 19 9 17 -25 -7 -50 12 -50 38 0 14 -3 26 -7 26 -37 6 -60
5 -70 -3 -15 -12 -29 14 -17 33 4 7 3 9 -3 6 -6 -4 -18 2 -28 13 -20 22 -50
25 -80 8z"/>
<path d="M2014 1326 c-18 -8 -35 -19 -39 -26 -6 -9 -3 -9 13 -1 11 6 32 11 46
11 20 0 27 -7 35 -37 6 -21 11 -43 11 -49 0 -29 48 -22 153 21 12 5 17 2 17
-11 0 -14 4 -11 15 10 23 44 19 46 -37 15 -75 -40 -103 -39 -124 9 -18 39 -43
72 -53 72 -3 -1 -20 -7 -37 -14z"/>
<path d="M1436 1314 c-9 -8 -21 -25 -27 -37 -7 -15 -3 -12 12 6 12 16 31 33
43 37 16 7 17 9 4 9 -9 1 -24 -6 -32 -15z"/>
<path d="M1810 1319 c-13 -9 -13 -10 2 -6 9 3 19 1 22 -6 2 -7 5 -4 5 6 1 20
-7 21 -29 6z"/>
<path d="M3524 1304 c-18 -14 -18 -15 4 -4 12 6 22 13 22 15 0 8 -5 6 -26 -11z"/>
<path d="M2347 1273 c-4 -3 -7 -11 -7 -17 0 -6 5 -5 12 2 6 6 9 14 7 17 -3 3
-9 2 -12 -2z"/>
<path d="M1867 1249 c7 -7 15 -10 18 -7 3 3 -2 9 -12 12 -14 6 -15 5 -6 -5z"/>
<path d="M2920 1220 c-9 -6 -10 -10 -3 -10 6 0 15 5 18 10 8 12 4 12 -15 0z"/>
<path d="M1887 902 c-10 -2 -16 -10 -13 -17 3 -8 -5 -16 -20 -19 -21 -6 -22
-9 -12 -26 13 -21 43 -27 53 -11 3 5 1 12 -5 16 -15 9 -2 25 15 18 10 -3 15 1
15 15 0 24 -8 30 -33 24z"/>
<path d="M2060 769 c0 -5 5 -7 10 -4 6 3 10 8 10 11 0 2 -4 4 -10 4 -5 0 -10
-5 -10 -11z"/>
<path d="M1870 691 c0 -6 5 -13 10 -16 6 -3 10 1 10 9 0 9 -4 16 -10 16 -5 0
-10 -4 -10 -9z"/>
<path d="M1760 601 c0 -5 5 -13 10 -16 6 -3 10 -2 10 4 0 5 -4 13 -10 16 -5 3
-10 2 -10 -4z"/>
<path d="M1810 545 c14 -15 34 -32 45 -37 16 -9 16 -6 -5 17 -14 15 -34 32
-45 37 -16 9 -16 6 5 -17z"/>
<path d="M2260 399 c71 -61 93 -72 130 -64 16 3 46 1 68 -6 22 -6 48 -9 58 -5
15 6 13 10 -16 27 -18 11 -39 27 -47 35 -8 8 -33 14 -57 14 -24 0 -65 7 -92
15 -73 22 -84 18 -44 -16z"/>
<path d="M1775 370 c3 -5 11 -10 17 -10 6 0 20 -8 30 -17 18 -16 20 -15 40 5
l22 21 -37 -6 c-24 -4 -37 -2 -37 6 0 6 -9 11 -21 11 -11 0 -17 -4 -14 -10z"/>
<path d="M1906 345 c-11 -8 -15 -15 -10 -15 6 0 19 7 30 15 10 8 15 14 9 14
-5 0 -19 -6 -29 -14z"/>
</g>
</svg>
